<svg xmlns="http://www.w3.org/2000/svg" xmlns:xlink="http://www.w3.org/1999/xlink" width="5000px" height="5000px" viewBox="0 0 5000 5000">
  <g id="qC0AqCD1a9IYLxzMNgJbM">
<g style="">
		<g id="3fLhuEMkkiIAAuqqBEFAD">
<path style="stroke: rgb(193,193,193); stroke-width: 0; stroke-dasharray: none; stroke-linecap: butt; stroke-dashoffset: 0; stroke-linejoin: miter; stroke-miterlimit: 4; fill: rgb(106,65,212); fill-rule: nonzero; opacity: 1;" transform="matrix(5.920239 0 0 5.926065 2523.87001 2472.199231) matrix(1 0 0 1 0 0)  translate(-549.267872, -521.106875)" d="M 277.07 884.37 C 274.03 880.50 274.47 875.16 278.91 862.00 C 283.29 849.00 290.34 833.84 298.28 820.33 C 301.99 814.01 304.18 808.89 305.31 803.83 C 307.30 795.03 309.00 772.02 309.00 754.06 C 309.00 738.49 308.51 738.06 301.20 747.25 C 291.95 758.87 282.81 766.38 274.81 768.94 C 269.17 770.74 265.88 768.56 262.08 760.52 C 260.39 756.93 258.61 754.00 258.14 754.00 C 257.07 754.00 254.01 756.35 242.50 766.00 C 237.55 770.15 231.25 775.29 228.50 777.43 C 210.50 791.42 201.48 804.16 194.51 825.39 C 183.26 859.64 171.87 878.48 161.09 880.63 C 157.03 881.44 152.00 876.66 152.00 871.99 C 152.00 862.80 166.24 836.73 183.99 813.46 C 188.38 807.69 193.07 800.82 194.41 798.18 C 195.74 795.55 201.13 779.92 206.39 763.45 C 211.65 746.98 218.90 725.00 222.50 714.61 C 230.14 692.58 236.00 672.90 236.00 669.25 C 236.00 666.71 235.99 666.70 233.85 668.60 C 231.12 671.01 216.80 687.92 204.30 703.50 C 186.11 726.15 158.69 751.21 148.86 754.16 C 144.84 755.37 144.67 755.32 141.87 752.18 C 137.32 747.09 137.64 740.17 143.14 724.21 C 149.45 705.92 157.76 690.71 172.61 670.33 C 183.76 655.01 196.41 644.71 206.75 642.53 C 215.07 640.77 222.49 648.53 217.13 653.39 C 215.35 654.99 215.08 654.94 212.10 652.43 L 208.96 649.79 L 203.23 652.58 C 190.11 658.97 173.08 680.36 159.09 708.00 C 147.80 730.31 144.18 745.00 149.98 745.00 C 153.96 745.00 174.62 726.07 191.34 707.10 C 196.38 701.38 209.07 686.31 219.54 673.60 C 230.01 660.90 239.79 649.92 241.27 649.20 C 243.25 648.25 244.49 648.19 245.97 648.98 C 250.88 651.61 249.90 656.08 233.47 706.50 C 214.26 765.45 209.29 781.49 210.10 781.81 C 210.53 781.99 216.46 777.49 223.27 771.81 C 254.82 745.55 263.36 739.08 264.31 740.75 C 264.54 741.16 265.93 745.15 267.40 749.61 C 268.87 754.06 270.65 758.50 271.35 759.47 C 272.57 761.14 272.84 761.12 276.57 759.22 C 281.59 756.66 291.94 746.11 301.23 734.10 C 309.30 723.67 311.93 721.93 315.02 725.02 C 316.85 726.85 317.01 728.49 317.11 746.75 C 317.16 757.61 317.12 771.79 317.02 778.25 C 316.88 786.52 317.16 790.00 317.96 790.00 C 319.26 790.00 327.22 781.60 336.16 770.81 C 339.49 766.79 345.74 759.90 350.06 755.50 C 358.63 746.77 360.71 742.99 363.96 730.20 C 366.48 720.27 370.34 711.19 372.37 710.41 C 374.57 709.57 378.00 711.79 378.00 714.07 C 378.00 715.17 376.91 718.21 375.59 720.83 C 374.26 723.44 372.47 728.04 371.61 731.04 C 369.58 738.14 365.71 763.81 366.40 765.61 C 367.56 768.64 369.70 766.60 373.98 758.37 C 381.66 743.61 388.57 738.67 393.73 744.25 C 394.87 745.49 396.79 749.88 397.99 754.00 C 399.19 758.12 400.84 762.54 401.65 763.81 L 403.13 766.13 L 410.54 759.09 C 421.75 748.44 424.52 748.42 433.84 758.90 C 443.14 769.37 447.47 770.00 460.23 762.75 C 467.85 758.43 484.58 744.20 486.04 740.80 C 486.68 739.31 488.20 734.13 489.41 729.30 C 491.39 721.41 491.87 720.47 494.06 720.24 C 499.22 719.69 499.51 720.83 497.20 732.66 C 493.06 753.87 491.95 767.23 494.20 768.63 C 494.96 769.09 496.91 767.56 499.45 764.50 C 501.68 761.82 506.39 756.56 509.91 752.82 C 518.47 743.73 520.25 743.74 531.05 753.02 C 540.71 761.32 543.76 763.00 549.17 763.00 C 551.86 763.00 555.62 762.35 557.53 761.55 C 566.77 757.69 585.08 741.95 592.61 731.39 C 605.38 713.50 627.86 700.27 632.09 708.17 C 633.05 709.97 632.94 710.57 631.44 711.67 C 630.44 712.40 628.80 713.00 627.80 713.00 C 626.80 713.00 623.85 713.97 621.24 715.16 C 614.95 718.03 597.72 735.48 592.75 744.02 C 586.64 754.51 588.10 755.69 598.14 748.35 C 607.17 741.75 610.23 738.97 631.16 718.37 C 650.60 699.24 653.50 697.32 655.97 701.95 C 657.22 704.28 656.04 707.48 646.72 727.00 C 636.13 749.22 628.14 771.25 626.45 782.95 C 623.92 800.37 647.34 778.07 674.71 737.00 C 682.84 724.81 690.47 716.00 692.92 716.00 C 695.12 716.00 697.00 717.34 697.00 718.91 C 697.00 719.85 694.43 723.73 691.29 727.53 C 685.05 735.09 679.00 744.57 679.00 746.78 C 679.00 747.55 681.67 750.91 684.93 754.25 C 692.19 761.70 695.12 766.92 698.43 778.35 C 701.31 788.28 701.76 789.27 703.06 788.46 C 703.57 788.15 709.48 781.50 716.19 773.69 C 722.91 765.89 730.86 756.81 733.86 753.52 C 736.86 750.23 740.35 745.28 741.60 742.52 C 745.40 734.15 754.87 694.08 756.55 679.29 C 757.24 673.16 757.22 673.09 754.54 672.42 C 749.42 671.13 722.73 673.53 691.09 678.12 C 672.99 680.74 663.57 680.43 660.88 677.10 C 655.57 670.54 662.87 659.91 680.65 648.32 C 705.98 631.81 747.53 621.19 757.76 628.62 C 762.54 632.08 765.77 639.94 766.56 650.02 C 766.94 654.94 767.83 659.76 768.54 660.73 C 769.74 662.37 772.63 662.46 811.21 662.15 C 847.63 661.85 852.75 661.99 853.88 663.36 C 854.59 664.21 854.89 665.78 854.54 666.86 C 853.76 669.33 847.98 669.74 803.39 670.44 C 785.72 670.72 770.10 671.39 768.68 671.93 C 765.61 673.10 764.58 676.35 760.54 697.50 C 757.98 710.89 753.32 730.19 743.56 767.77 C 741.09 777.27 737.69 792.80 735.99 802.27 C 731.69 826.34 731.49 827.00 728.32 827.00 C 725.72 827.00 725.71 826.97 726.30 820.75 C 726.63 817.31 728.99 803.56 731.56 790.19 C 734.12 776.83 735.98 765.65 735.69 765.35 C 734.56 764.23 731.75 766.92 722.00 778.52 C 704.66 799.12 702.50 803.29 700.99 819.10 C 699.11 838.80 688.81 857.00 679.55 857.00 C 675.79 857.00 674.51 855.81 673.57 851.42 C 672.45 846.14 674.77 839.06 683.08 822.50 C 692.49 803.73 694.03 797.48 692.13 785.94 C 690.10 773.66 683.01 761.12 676.07 757.53 C 672.54 755.71 672.07 756.13 656.76 774.50 C 649.88 782.75 643.41 790.25 642.38 791.17 C 639.38 793.84 630.44 798.00 627.71 798.00 C 624.17 798.00 619.29 793.08 618.47 788.68 C 617.34 782.65 622.64 763.67 631.60 741.70 C 634.02 735.76 636.00 730.48 636.00 729.95 C 636.00 727.52 632.61 729.67 623.92 737.61 C 604.30 755.53 590.49 765.04 583.61 765.33 C 580.13 765.48 579.40 765.13 578.24 762.75 C 577.50 761.24 576.38 760.00 575.77 760.00 C 575.15 760.00 571.80 761.85 568.32 764.12 C 560.36 769.30 555.89 770.90 549.21 770.96 C 542.56 771.01 537.97 768.76 527.66 760.37 C 523.35 756.87 519.46 754.00 519.02 754.00 C 518.58 754.00 514.46 758.61 509.87 764.25 C 500.33 775.95 497.45 778.86 494.18 780.11 C 489.25 782.01 485.00 776.25 485.00 767.66 C 485.00 762.39 484.02 757.00 483.06 757.00 C 482.68 757.00 478.80 759.71 474.43 763.03 C 464.77 770.38 456.22 774.64 449.27 775.56 C 442.12 776.51 434.98 773.04 428.52 765.48 C 425.95 762.46 423.29 760.00 422.60 760.00 C 421.92 760.00 418.36 763.16 414.69 767.02 C 411.02 770.88 406.84 774.49 405.41 775.03 C 399.91 777.13 394.10 771.27 391.89 761.40 C 391.22 758.39 390.06 755.15 389.33 754.21 C 388.09 752.62 387.86 752.66 386.03 754.82 C 384.95 756.09 381.70 761.43 378.80 766.68 C 372.29 778.46 370.03 781.00 366.07 781.00 C 362.01 781.00 359.91 777.62 359.09 769.72 C 358.27 761.88 357.53 760.52 355.02 762.27 C 352.54 764.01 320.33 801.56 317.51 806.00 C 314.19 811.23 311.22 820.38 309.49 830.74 C 306.56 848.24 299.46 867.91 292.37 878.17 C 289.72 882.02 283.07 887.00 280.59 887.00 C 279.80 887.00 278.21 885.81 277.07 884.37 M 289.33 868.19 C 293.68 859.92 298.64 845.31 299.42 838.50 L 300.00 833.50 L 295.02 843.50 C 286.85 859.91 281.99 875.00 284.88 875.00 C 285.36 875.00 287.36 871.93 289.33 868.19 M 167.91 865.12 C 170.01 862.03 173.31 856.35 175.25 852.50 C 179.36 844.32 185.31 827.97 184.47 827.13 C 184.15 826.82 183.58 827.02 183.20 827.58 C 182.81 828.15 180.43 831.51 177.91 835.05 C 167.42 849.79 158.17 868.29 160.12 870.64 C 161.76 872.62 163.82 871.15 167.91 865.12 M 685.37 837.93 C 688.46 830.80 688.82 826.77 685.87 832.38 C 683.06 837.71 680.92 844.00 681.91 844.00 C 682.37 844.00 683.92 841.27 685.37 837.93 M 699.50 668.48 C 717.79 666.02 731.47 664.58 747.27 663.45 C 758.93 662.61 759.44 662.07 758.69 651.40 C 757.99 641.44 756.05 636.35 752.44 634.98 C 746.89 632.87 723.37 637.59 707.14 644.07 C 692.09 650.08 674.39 661.62 670.78 667.78 C 667.78 672.89 666.78 672.86 699.50 668.48 M 348.79 838.06 C 340.89 835.53 336.47 828.91 337.25 820.78 C 337.77 815.29 340.05 811.61 344.99 808.25 C 349.31 805.31 358.65 805.08 362.05 807.84 C 365.45 810.59 363.70 812.00 356.89 812.00 C 344.41 812.00 338.52 819.52 344.28 828.10 C 347.10 832.30 351.96 834.16 358.25 833.46 C 361.92 833.05 363.00 833.25 363.00 834.34 C 363.00 835.12 362.39 836.26 361.65 836.88 C 359.80 838.41 352.10 839.12 348.79 838.06 M 396.95 833.82 C 396.33 831.52 395.98 825.23 396.16 819.84 C 396.57 808.13 398.06 805.72 404.84 805.82 C 413.44 805.94 416.17 811.01 408.22 812.07 C 400.06 813.16 399.67 817.68 407.70 818.19 C 412.06 818.47 412.50 818.73 412.50 820.99 C 412.50 822.44 411.88 823.55 411.00 823.67 C 402.59 824.78 402.00 825.04 402.02 827.80 C 402.04 831.84 403.28 833.09 407.88 833.71 C 416.45 834.86 413.84 837.96 404.29 837.98 L 398.08 838.00 L 396.95 833.82 M 559.35 836.79 C 558.90 836.08 558.36 830.42 558.16 824.22 C 557.61 807.77 559.33 804.98 569.18 806.30 C 573.84 806.92 575.52 808.19 574.66 810.43 C 574.27 811.47 572.78 812.01 570.28 812.02 C 565.61 812.03 563.69 813.16 564.16 815.62 C 564.43 817.03 565.64 817.63 569.00 818.00 C 572.36 818.37 573.57 818.97 573.84 820.38 C 574.27 822.65 572.44 823.96 568.82 823.98 C 565.28 824.00 562.75 826.59 563.57 829.36 C 564.48 832.44 566.89 834.00 570.76 834.00 C 573.45 834.00 574.08 834.36 573.81 835.75 C 573.54 837.17 572.23 837.56 566.83 837.79 C 562.20 838.00 559.92 837.69 559.35 836.79 M 620.43 834.50 C 617.16 830.21 615.22 830.06 613.85 834.00 C 613.18 835.92 612.12 837.00 610.90 837.00 C 609.12 837.00 609.00 836.08 609.00 822.00 L 609.00 807.00 L 614.98 807.00 C 620.13 807.00 621.38 807.38 623.91 809.75 C 628.28 813.84 628.49 815.98 625.03 821.08 C 621.47 826.33 621.45 826.56 623.93 832.10 C 626.94 838.82 624.83 840.27 620.43 834.50 M 446.63 834.75 C 445.84 831.81 445.82 811.62 446.61 809.58 C 447.67 806.82 449.36 807.81 457.50 816.00 C 461.87 820.40 465.99 824.00 466.65 824.00 C 467.39 824.00 468.08 821.46 468.48 817.25 C 469.41 807.43 469.38 807.55 471.13 807.21 C 473.46 806.76 473.97 809.79 473.99 824.25 C 474.00 834.52 473.73 837.00 472.60 837.00 C 471.83 837.00 467.11 833.17 462.11 828.50 C 457.12 823.83 452.57 820.00 452.01 820.00 C 451.41 820.00 451.00 823.42 451.00 828.50 C 451.00 836.16 450.81 837.00 449.12 837.00 C 448.01 837.00 446.98 836.07 446.63 834.75 M 513.64 833.25 C 513.30 831.19 513.02 826.72 513.01 823.32 C 513.00 815.84 511.85 812.45 509.08 811.73 C 507.86 811.41 507.00 810.37 507.00 809.22 C 507.00 807.63 507.89 807.15 511.75 806.69 C 517.92 805.94 524.40 807.10 524.75 809.02 C 524.90 809.83 523.74 811.23 522.17 812.12 C 518.74 814.05 518.00 816.97 518.00 828.62 C 518.00 836.14 517.81 837.00 516.13 837.00 C 514.75 837.00 514.10 836.02 513.64 833.25 M 761.82 807.25 C 756.75 801.78 755.68 791.79 758.47 775.88 C 760.58 763.79 767.49 743.54 770.79 739.75 C 772.60 737.67 775.85 737.45 776.58 739.36 C 776.87 740.11 774.55 748.54 771.44 758.11 C 766.29 773.90 765.72 776.53 765.25 786.72 C 764.82 795.95 765.01 798.36 766.33 800.38 C 767.48 802.14 768.53 802.67 770.06 802.27 C 772.95 801.52 782.35 792.68 789.57 783.94 C 792.83 779.99 798.02 773.73 801.10 770.02 C 804.18 766.31 810.99 757.25 816.23 749.88 C 821.47 742.52 828.69 733.69 832.29 730.25 C 838.13 724.67 839.26 724.00 842.91 724.00 C 845.62 724.00 847.00 724.44 847.00 725.31 C 847.00 726.04 842.84 730.90 837.75 736.12 C 824.29 749.93 813.90 769.35 815.48 777.74 C 816.21 781.64 819.17 785.00 821.87 785.00 C 825.58 785.00 846.78 769.54 863.00 755.01 C 874.49 744.72 876.87 743.00 879.63 743.00 C 881.57 743.00 882.00 743.52 882.00 745.86 C 882.00 748.20 880.22 750.36 872.25 757.70 C 845.34 782.47 826.10 794.75 817.54 792.60 C 813.94 791.70 809.34 786.83 808.51 783.04 C 807.13 776.76 805.76 777.35 796.50 788.23 C 785.93 800.64 781.97 804.33 775.78 807.55 C 769.42 810.85 765.08 810.76 761.82 807.25 M 780.42 716.64 C 780.10 715.82 779.99 714.10 780.17 712.82 C 780.43 711.01 781.22 710.43 783.81 710.18 C 787.09 709.87 787.13 709.91 786.81 713.68 C 786.54 717.01 786.15 717.54 783.74 717.82 C 782.00 718.02 780.78 717.59 780.42 716.64 M 475.38 613.45 C 446.89 609.30 425.27 599.79 403.36 581.78 C 392.07 572.50 379.02 556.00 380.31 552.64 C 380.59 551.90 384.13 550.07 388.16 548.58 C 392.20 547.08 398.62 543.87 402.43 541.43 C 406.24 538.99 409.65 537.00 410.02 537.00 C 411.23 537.00 413.69 540.36 420.81 551.72 C 432.97 571.14 445.22 585.38 459.99 597.27 C 468.05 603.76 482.07 611.06 491.00 613.42 L 496.50 614.87 L 490.50 614.83 C 487.20 614.80 480.40 614.19 475.38 613.45 M 509.37 614.06 C 513.94 612.55 519.47 608.27 522.73 603.71 C 531.04 592.08 535.75 577.95 543.99 539.97 C 550.48 510.04 555.79 488.66 561.17 470.75 C 563.37 463.43 564.08 459.68 563.38 458.98 C 562.68 458.28 559.94 458.32 554.76 459.09 C 549.16 459.92 545.00 459.93 538.91 459.11 C 529.67 457.86 529.80 457.82 521.63 464.89 C 517.44 468.52 511.96 470.98 508.05 470.99 C 507.25 471.00 499.15 475.23 490.05 480.40 C 468.91 492.42 451.48 501.10 437.53 506.55 C 425.77 511.14 425.44 511.38 417.00 521.22 C 403.66 536.76 387.27 545.70 373.68 544.85 C 368.68 544.53 368.28 544.66 369.57 546.08 C 370.36 546.95 371.00 548.12 371.00 548.68 C 371.00 549.24 363.91 552.51 355.25 555.96 C 346.59 559.41 338.27 562.86 336.77 563.63 C 333.55 565.28 331.00 569.75 331.00 573.73 C 331.00 575.28 330.28 577.58 329.40 578.84 C 327.89 580.99 327.37 581.08 320.11 580.45 L 312.41 579.78 L 300.46 585.98 C 293.88 589.39 286.83 592.80 284.78 593.54 C 281.22 594.83 280.97 594.78 279.03 592.31 C 275.04 587.24 276.01 585.30 288.75 572.83 C 301.59 560.26 307.84 556.08 318.50 552.90 C 323.08 551.54 327.07 549.50 330.06 547.01 C 332.57 544.92 339.77 539.94 346.06 535.94 C 352.35 531.95 361.74 525.99 366.92 522.70 C 372.10 519.41 379.98 515.02 384.42 512.96 C 391.93 509.47 392.88 508.67 397.85 501.67 C 404.34 492.53 410.77 487.35 426.50 478.58 C 433.10 474.91 439.33 471.28 440.35 470.52 C 442.50 468.91 441.74 467.00 438.94 467.00 C 437.87 467.00 437.00 466.77 437.00 466.48 C 437.00 466.20 440.26 462.94 444.25 459.24 C 458.41 446.11 460.00 444.35 460.00 441.75 C 460.00 440.37 459.32 438.68 458.50 438.00 C 457.68 437.32 457.00 435.74 457.00 434.50 C 457.00 433.26 457.68 430.63 458.50 428.65 C 460.60 423.62 460.37 418.06 457.59 406.50 C 453.03 387.61 453.10 385.38 458.15 388.08 C 459.26 388.68 460.41 388.93 460.70 388.64 C 460.99 388.35 460.27 385.30 459.11 381.86 C 455.98 372.58 456.58 368.66 460.21 374.75 C 463.30 379.94 469.16 386.00 471.08 386.00 C 473.55 386.00 473.51 384.26 470.94 380.50 C 468.12 376.37 463.05 366.39 461.43 361.80 C 459.94 357.59 460.99 356.77 464.17 359.65 C 466.47 361.74 466.56 360.41 464.54 353.75 C 462.35 346.54 461.00 334.81 460.84 321.50 C 460.75 314.90 460.49 310.18 460.26 311.00 C 459.09 315.19 459.02 315.26 457.55 314.04 C 454.90 311.84 451.04 297.83 449.96 286.50 C 448.47 270.80 447.56 266.82 440.49 245.00 C 434.63 226.91 431.11 213.04 429.57 201.97 C 428.62 195.09 425.96 191.51 420.33 189.52 C 417.68 188.58 413.56 187.13 411.19 186.30 C 407.72 185.08 406.95 184.38 407.19 182.65 C 407.43 180.96 408.30 180.43 411.25 180.19 C 413.31 180.02 415.00 179.49 415.00 179.01 C 415.00 177.40 411.71 174.84 406.46 172.35 C 403.58 170.99 400.20 168.78 398.94 167.44 C 396.75 165.11 396.74 165.00 398.63 165.00 C 401.62 165.00 404.17 162.70 405.40 158.92 C 406.00 157.05 407.20 155.39 408.06 155.22 C 409.02 155.04 412.80 158.76 417.84 164.86 C 422.35 170.33 428.06 176.45 430.52 178.47 C 437.07 183.83 439.80 187.90 443.46 197.72 C 446.11 204.81 447.09 206.43 448.57 206.16 C 449.57 205.97 453.79 203.21 457.95 200.01 C 472.83 188.56 495.71 177.46 514.56 172.56 C 559.14 160.97 612.50 172.61 666.06 205.61 C 676.75 212.20 698.06 227.30 707.98 235.33 C 721.18 246.01 740.00 262.40 740.00 263.21 C 740.00 264.58 738.95 264.12 730.62 259.12 C 681.64 229.67 644.45 209.59 616.50 197.49 C 558.88 172.55 509.39 172.21 467.13 196.47 C 452.20 205.04 448.05 208.09 448.03 210.50 C 448.02 211.60 449.18 214.97 450.60 218.00 C 455.60 228.65 457.25 233.71 463.08 256.28 C 470.72 285.85 480.22 310.31 486.52 316.62 C 488.57 318.66 489.29 318.84 491.70 317.93 C 500.40 314.63 505.78 301.49 501.50 294.00 C 499.03 289.67 499.70 287.16 504.75 281.95 C 507.36 279.26 509.73 275.84 510.00 274.35 C 510.44 271.98 511.18 271.52 516.09 270.54 C 519.55 269.85 523.16 268.26 525.59 266.36 C 531.94 261.38 533.82 260.70 539.52 261.37 C 546.64 262.21 551.23 264.31 555.44 268.65 C 560.92 274.28 564.39 282.27 564.84 290.24 C 565.32 298.63 562.79 304.43 554.46 314.04 L 548.86 320.50 L 555.64 320.80 C 562.55 321.11 587.66 317.31 597.79 314.43 C 600.71 313.60 606.62 311.36 610.94 309.47 C 616.85 306.87 621.65 305.64 630.34 304.50 C 637.85 303.52 645.49 301.72 652.19 299.35 C 661.37 296.12 663.59 295.72 672.50 295.70 C 683.54 295.67 689.30 296.98 705.00 303.06 C 711.39 305.53 714.61 307.31 714.85 308.50 C 715.13 309.95 714.65 310.18 712.05 309.79 C 708.16 309.22 707.44 310.18 710.02 312.52 C 712.26 314.55 712.67 318.00 710.68 318.00 C 709.95 318.00 705.63 316.39 701.09 314.42 C 696.55 312.45 692.56 311.10 692.24 311.42 C 691.92 311.75 692.19 314.29 692.83 317.08 C 694.37 323.74 694.34 324.00 692.02 324.00 C 690.73 324.00 689.36 322.66 688.08 320.16 C 685.54 315.17 680.02 310.38 675.34 309.08 C 671.17 307.93 666.15 309.43 649.41 316.83 C 637.84 321.94 620.50 327.80 601.87 332.89 C 593.83 335.09 582.82 338.78 577.41 341.09 C 571.33 343.69 563.57 346.04 557.04 347.27 C 540.48 350.39 538.85 350.93 535.56 354.45 C 533.88 356.26 529.69 360.67 526.25 364.26 C 521.45 369.27 520.00 371.48 520.00 373.76 C 520.00 377.88 523.45 382.00 526.90 382.00 C 530.25 382.00 532.05 383.90 539.47 395.24 C 542.61 400.05 546.45 404.90 548.00 406.00 C 551.56 408.53 558.23 409.46 563.78 408.18 C 569.57 406.85 571.42 407.53 574.43 412.08 C 577.17 416.21 580.37 417.63 584.59 416.57 C 586.01 416.21 591.53 411.52 596.84 406.14 C 606.47 396.39 617.46 387.87 626.00 383.53 C 631.19 380.90 645.10 375.77 645.63 376.30 C 645.83 376.50 642.73 378.73 638.75 381.27 C 621.41 392.30 609.22 408.46 595.96 438.00 C 585.94 460.33 583.58 466.95 572.09 505.18 C 561.44 540.60 552.16 567.78 546.11 581.25 C 537.01 601.54 524.89 613.12 511.34 614.51 C 507.36 614.91 507.01 614.83 509.37 614.06 M 361.26 517.75 C 357.47 512.98 351.20 486.70 349.01 466.50 C 347.62 453.70 347.60 416.34 348.97 404.00 C 352.26 374.37 359.57 344.99 370.74 316.50 C 374.73 306.34 384.35 286.15 388.97 278.25 C 394.26 269.20 394.25 272.53 388.95 283.09 C 384.98 291.01 382.83 297.32 378.99 312.34 C 371.54 341.48 370.49 349.92 370.54 380.50 C 370.56 399.95 371.01 409.52 372.33 418.50 C 375.04 436.97 380.45 459.96 386.50 478.74 C 391.80 495.17 392.80 500.23 391.23 502.62 C 390.22 504.15 364.33 519.00 362.66 519.00 C 362.43 519.00 361.80 518.44 361.26 517.75 M 603.49 447.98 C 602.06 445.68 611.26 424.86 615.37 421.07 C 617.53 419.08 618.96 418.67 623.36 418.79 C 628.12 418.91 628.83 418.66 629.82 416.50 C 631.52 412.77 642.53 407.76 656.50 404.37 C 662.12 403.00 667.94 402.69 686.00 402.79 C 698.38 402.85 709.26 402.68 710.19 402.40 C 711.12 402.13 713.46 399.71 715.38 397.03 L 718.88 392.16 L 730.69 392.33 C 741.01 392.48 743.51 392.17 750.50 389.88 C 754.90 388.44 760.42 386.98 762.76 386.62 C 766.77 386.01 767.13 386.16 769.00 389.24 C 773.37 396.40 771.33 399.41 756.81 407.28 C 743.70 414.38 735.67 416.82 719.97 418.47 C 709.73 419.55 699.80 421.55 682.30 426.07 C 656.14 432.83 648.67 435.29 636.00 441.29 C 629.37 444.44 626.45 445.29 622.72 445.16 C 620.09 445.07 615.27 445.90 612.00 447.00 C 605.21 449.29 604.36 449.39 603.49 447.98 M 679.50 370.15 C 675.74 369.48 675.95 369.39 683.00 368.67 C 687.12 368.24 702.27 366.13 716.66 363.98 C 847.16 344.45 919.01 311.67 954.64 255.43 C 957.28 251.26 959.61 248.33 959.81 248.92 C 960.00 249.51 958.10 255.00 955.58 261.12 C 947.36 281.10 936.97 296.06 920.12 312.20 C 886.23 344.68 840.28 361.80 769.00 368.51 C 751.30 370.18 686.30 371.37 679.50 370.15 Z" stroke-linecap="round"/>
</g>
</g>
</g>

  </svg>